<?xml version="1.0" standalone="no"?>
<!DOCTYPE svg PUBLIC "-//W3C//DTD SVG 20010904//EN"
 "http://www.w3.org/TR/2001/REC-SVG-20010904/DTD/svg10.dtd">
<svg version="1.0" xmlns="http://www.w3.org/2000/svg"
 width="360.000000pt" height="360.000000pt" viewBox="0 0 360.000000 360.000000"
 preserveAspectRatio="xMidYMid meet">
<metadata>
Created by potrace 1.11, written by Peter Selinger 2001-2013
</metadata>
<g transform="translate(0.000000,360.000000) scale(0.100000,-0.100000)"
fill="#000000" stroke="none">
<path d="M1635 3589 c-22 -4 -58 -9 -80 -13 -63 -9 -92 -15 -122 -27 -16 -6
-30 -11 -33 -11 -6 -1 -8 -1 -65 -19 -67 -20 -206 -94 -290 -154 -341 -243
-577 -683 -674 -1260 -18 -107 -24 -153 -36 -312 l-6 -83 -69 -70 c-201 -205
-309 -500 -232 -634 9 -17 37 -41 60 -53 88 -44 181 -9 254 96 21 30 24 27 32
-24 5 -38 10 -61 21 -115 3 -14 10 -45 15 -70 12 -62 71 -233 105 -304 79
-166 204 -278 415 -372 169 -74 341 -116 615 -150 80 -10 429 -10 530 -1 383
37 726 164 900 332 96 92 181 277 221 480 18 91 31 172 37 240 4 38 17 39 43
4 89 -121 245 -124 303 -7 16 33 19 55 16 112 -5 88 -7 95 -41 181 -53 133
-123 236 -235 347 -71 70 -78 80 -83 125 -10 88 -17 137 -27 203 -6 36 -13 79
-16 95 -7 48 -62 264 -85 335 -86 270 -208 507 -351 685 -106 132 -290 279
-425 341 -79 36 -221 83 -272 89 -24 3 -47 8 -53 12 -14 9 -325 11 -372 2z"/>
</g>
</svg>
